<?xml version="1.0" encoding="utf-8"?>
<!-- Generator: Adobe Illustrator 26.0.1, SVG Export Plug-In . SVG Version: 6.00 Build 0)  -->
<svg version="1.1" id="Layer_1" xmlns="http://www.w3.org/2000/svg" xmlns:xlink="http://www.w3.org/1999/xlink" x="0px" y="0px"
	 viewBox="0 0 1366 768" style="enable-background:new 0 0 1366 768;" xml:space="preserve">
<style type="text/css">
	.st0{fill:#5C946E;}
</style>
<g>
	<polygon class="st0" points="372.68,402.34 219.55,263.3 423.06,226.33 507.97,37.73 606.02,219.85 811.63,242.32 668.72,391.85 
		710.89,594.34 524.51,504.64 344.96,607.31 	"/>
	<path d="M508.21,44.5l94.42,175.38l1.5,2.78l3.14,0.34l198,21.64L667.64,388.64l-2.18,2.28l0.64,3.09l40.6,195l-179.47-86.39
		l-2.84-1.37l-2.74,1.57l-172.91,98.87l26.7-197.38l0.42-3.13l-2.34-2.12L226.07,265.17l195.97-35.6l3.1-0.56l1.3-2.88L508.21,44.5
		 M507.73,30.95l-86.76,192.71l-207.93,37.78L369.5,403.5l-28.33,209.43l183.46-104.91l190.43,91.66l-43.08-206.9L818,240
		l-210.09-22.97L507.73,30.95L507.73,30.95z"/>
</g>
<g>
	<path d="M314.78,320.65v-24.83h-6.83v8.45h-4.1v-12.6h26.83v12.6h-4.1v-8.45h-6.81v24.83h4.31v4.14h-13.55v-4.14H314.78z"/>
	<path d="M337.14,320.77V295.7h-4.17v-4.02h8.69v12.71c2.71-2.19,5.29-3.29,7.74-3.29c1.52,0,2.78,0.32,3.76,0.95
		c0.98,0.63,1.66,1.47,2.01,2.51c0.36,1.04,0.54,2.56,0.54,4.56v11.64h3.93v4.02h-8.45v-14.1c0-1.75-0.06-2.91-0.17-3.5
		s-0.42-1.07-0.92-1.45c-0.5-0.38-1.09-0.57-1.77-0.57c-1.75,0-3.97,0.99-6.67,2.98v12.62h4v4.02h-12.69v-4.02H337.14z"/>
	<path d="M385.19,320.77v4.02h-7.9v-2.81c-2.19,2.13-4.63,3.19-7.33,3.19c-2.1,0-3.92-0.68-5.46-2.05
		c-1.55-1.37-2.32-3.11-2.32-5.24c0-2.14,0.82-3.92,2.46-5.33c1.64-1.41,3.62-2.12,5.94-2.12c2.16,0,4.25,0.65,6.26,1.95v-2.29
		c0-1.17-0.11-2.08-0.33-2.71c-0.22-0.63-0.74-1.21-1.56-1.71c-0.82-0.51-1.88-0.76-3.2-0.76c-2.27,0-3.91,0.9-4.93,2.71l-4.33-1.14
		c1.92-3.59,5.24-5.38,9.95-5.38c1.73,0,3.23,0.23,4.49,0.7c1.26,0.47,2.2,1.07,2.82,1.81c0.62,0.74,1.04,1.54,1.25,2.39
		c0.21,0.86,0.32,2.22,0.32,4.1v10.67H385.19z M376.83,316.22c-1.95-1.52-3.93-2.29-5.93-2.29c-1.25,0-2.3,0.37-3.14,1.1
		s-1.26,1.67-1.26,2.83c0,1.08,0.37,1.98,1.11,2.71c0.74,0.73,1.74,1.1,3.01,1.1c2.19,0,4.26-0.92,6.21-2.76V316.22z"/>
	<path d="M395.69,301.75v2.79c2.9-2.1,5.56-3.14,7.95-3.14c1.49,0,2.73,0.35,3.7,1.06c0.98,0.71,1.62,1.57,1.92,2.59
		c0.3,1.02,0.45,2.52,0.45,4.49v11.24h3.88v4.02h-8.4v-15.07c0-1.75-0.26-2.88-0.79-3.42c-0.52-0.53-1.17-0.8-1.93-0.8
		c-2,0-4.26,0.98-6.79,2.93v12.33h3.98v4.02h-12.55v-4.02h4.05v-15h-4.05v-4.02H395.69z"/>
	<path d="M419.09,320.77V295.7h-4.14v-4.02h8.67v20.69l8.62-6.88h-3.83v-3.74h12.74v3.74h-3.52l-8.64,7.19l8.12,8.1h4.05v4.02h-5.93
		l-11.6-11.6v7.57h3.98v4.02h-12.64v-4.02H419.09z"/>
	<path d="M443.71,324.8v-7.9h4.05v0.76c0.14,1.08,0.73,1.97,1.75,2.67c1.02,0.7,2.23,1.05,3.63,1.05c1.46,0,2.63-0.25,3.5-0.76
		c0.87-0.51,1.31-1.21,1.31-2.12c0-0.87-0.36-1.52-1.08-1.93c-0.72-0.41-2.16-0.79-4.3-1.14c-3.18-0.54-5.44-1.4-6.8-2.6
		c-1.36-1.2-2.03-2.75-2.03-4.66c0-1.92,0.74-3.53,2.21-4.82c1.48-1.29,3.42-1.94,5.83-1.94c2.17,0,4.05,0.45,5.62,1.34v-0.99h4.02
		v7.64h-4.02v-1.4c-1.22-1.89-3-2.83-5.33-2.83c-1.19,0-2.17,0.26-2.94,0.77c-0.77,0.52-1.16,1.2-1.16,2.06
		c0,0.87,0.35,1.47,1.06,1.8c0.71,0.33,2.23,0.67,4.56,1.03c2.24,0.35,3.93,0.76,5.07,1.22c1.14,0.47,2.09,1.25,2.85,2.33
		c0.75,1.09,1.13,2.35,1.13,3.8c0,2.14-0.82,3.85-2.46,5.11c-1.64,1.26-3.77,1.89-6.39,1.89c-2.46,0-4.47-0.56-6.02-1.68v1.3H443.71
		z"/>
	<path d="M480.93,320.77v-15.02h-3.36v-4h3.36v-3.33c0-2.8,0.6-4.74,1.79-5.81c1.19-1.07,2.6-1.6,4.21-1.6
		c3.49,0,5.52,1.77,6.07,5.31l-4.02,0.62c-0.16-1.48-0.74-2.21-1.74-2.21c-0.68,0-1.15,0.23-1.4,0.7c-0.25,0.47-0.38,1.47-0.38,3
		v3.32h3.95v4h-3.95v15.02h4.38v4.02h-12.26v-4.02H480.93z"/>
	<path d="M493.31,313.27c0-3.56,1.17-6.47,3.52-8.75c2.35-2.28,5.21-3.42,8.6-3.42c3.32,0,6.17,1.12,8.55,3.37
		c2.38,2.25,3.57,5.18,3.57,8.8s-1.19,6.56-3.56,8.81c-2.37,2.25-5.23,3.38-8.56,3.38c-3.43,0-6.31-1.14-8.63-3.43
		C494.47,319.75,493.31,316.83,493.31,313.27z M498.09,313.26c0,2.27,0.71,4.14,2.13,5.59c1.42,1.45,3.16,2.18,5.2,2.18
		c2.08,0,3.82-0.73,5.23-2.2c1.41-1.47,2.11-3.33,2.11-5.57c0-2.26-0.71-4.12-2.14-5.58c-1.43-1.46-3.16-2.19-5.19-2.19
		c-2.13,0-3.88,0.75-5.26,2.24C498.78,309.22,498.09,311.06,498.09,313.26z"/>
	<path d="M525.12,320.77v-15h-4.64v-4.02h8.26v5.19c0.51-1.35,1.21-2.47,2.12-3.36c0.9-0.89,1.86-1.48,2.87-1.76
		c1.01-0.29,2.38-0.43,4.13-0.43h1.19v4.57h-0.9c-2.3,0-4.02,0.23-5.16,0.69c-1.13,0.46-1.98,1.3-2.52,2.51
		c-0.55,1.21-0.82,3.39-0.82,6.54v5.07h5.02v4.02h-14.19v-4.02H525.12z"/>
	<path d="M563.43,325.18l-7.54-19.4h-4.07v-4.02h11.6v4.02h-3l4.96,13.07l4.97-13.07h-3.2v-4.02h11.26v4.02h-3.54l-7.35,19.4H563.43
		z"/>
	<path d="M583.52,320.77v-15h-3.57v-4.02h8.1v19.02h3.57v4.02h-11.67v-4.02H583.52z M582.88,293.91c0-0.73,0.26-1.37,0.77-1.9
		c0.52-0.54,1.17-0.81,1.96-0.81c0.75,0,1.39,0.26,1.93,0.79c0.54,0.52,0.81,1.17,0.81,1.93s-0.27,1.41-0.81,1.94
		c-0.54,0.53-1.18,0.8-1.93,0.8c-0.76,0-1.41-0.27-1.94-0.81C583.15,295.3,582.88,294.66,582.88,293.91z"/>
	<path d="M594.59,324.8v-7.9h4.05v0.76c0.14,1.08,0.73,1.97,1.75,2.67c1.02,0.7,2.23,1.05,3.63,1.05c1.46,0,2.63-0.25,3.5-0.76
		c0.87-0.51,1.31-1.21,1.31-2.12c0-0.87-0.36-1.52-1.08-1.93c-0.72-0.41-2.16-0.79-4.3-1.14c-3.18-0.54-5.44-1.4-6.8-2.6
		c-1.36-1.2-2.03-2.75-2.03-4.66c0-1.92,0.74-3.53,2.21-4.82c1.48-1.29,3.42-1.94,5.83-1.94c2.17,0,4.05,0.45,5.62,1.34v-0.99h4.02
		v7.64h-4.02v-1.4c-1.22-1.89-3-2.83-5.33-2.83c-1.19,0-2.17,0.26-2.94,0.77c-0.77,0.52-1.16,1.2-1.16,2.06
		c0,0.87,0.35,1.47,1.06,1.8c0.71,0.33,2.23,0.67,4.56,1.03c2.24,0.35,3.93,0.76,5.07,1.22c1.14,0.47,2.09,1.25,2.85,2.33
		c0.75,1.09,1.13,2.35,1.13,3.8c0,2.14-0.82,3.85-2.46,5.11c-1.64,1.26-3.77,1.89-6.39,1.89c-2.46,0-4.47-0.56-6.02-1.68v1.3H594.59
		z"/>
	<path d="M620.09,320.77v-15h-3.57v-4.02h8.1v19.02h3.57v4.02h-11.67v-4.02H620.09z M619.45,293.91c0-0.73,0.26-1.37,0.77-1.9
		c0.52-0.54,1.17-0.81,1.96-0.81c0.75,0,1.39,0.26,1.93,0.79c0.54,0.52,0.81,1.17,0.81,1.93s-0.27,1.41-0.81,1.94
		c-0.54,0.53-1.18,0.8-1.93,0.8c-0.76,0-1.41-0.27-1.94-0.81C619.72,295.3,619.45,294.66,619.45,293.91z"/>
	<path d="M630.64,305.77v-4.02h3v-3.55l4.52-4.14v7.69h4.26v4.02h-4.26v11.19c0,1.79,0.1,2.9,0.3,3.32c0.2,0.42,0.69,0.63,1.49,0.63
		c0.84,0,1.67-0.16,2.48-0.48v4.12c-1.16,0.41-2.32,0.62-3.48,0.62c-1.38,0-2.5-0.31-3.36-0.92c-0.86-0.61-1.4-1.38-1.62-2.3
		c-0.22-0.92-0.33-2.51-0.33-4.76v-11.43H630.64z"/>
	<path d="M649.05,320.77v-15h-3.57v-4.02h8.1v19.02h3.57v4.02h-11.67v-4.02H649.05z M648.4,293.91c0-0.73,0.26-1.37,0.77-1.9
		c0.52-0.54,1.17-0.81,1.96-0.81c0.75,0,1.39,0.26,1.93,0.79c0.54,0.52,0.81,1.17,0.81,1.93s-0.27,1.41-0.81,1.94
		c-0.54,0.53-1.18,0.8-1.93,0.8c-0.76,0-1.41-0.27-1.94-0.81C648.67,295.3,648.4,294.66,648.4,293.91z"/>
	<path d="M668,301.75v2.79c2.9-2.1,5.56-3.14,7.95-3.14c1.49,0,2.73,0.35,3.7,1.06c0.98,0.71,1.62,1.57,1.92,2.59
		c0.3,1.02,0.45,2.52,0.45,4.49v11.24h3.88v4.02h-8.4v-15.07c0-1.75-0.26-2.88-0.79-3.42c-0.52-0.53-1.17-0.8-1.93-0.8
		c-2,0-4.26,0.98-6.79,2.93v12.33h3.98v4.02h-12.55v-4.02h4.05v-15h-4.05v-4.02H668z"/>
	<path d="M716,301.75v4.02h-4.14v17.17c0,2.32-0.12,4.04-0.36,5.15c-0.24,1.12-0.81,2.26-1.73,3.43c-0.91,1.17-2.28,2.15-4.11,2.94
		c-1.83,0.79-3.87,1.19-6.12,1.19c-3.4,0-6.43-1.02-9.09-3.07l2.95-3.29c2,1.56,4.17,2.33,6.52,2.33c1.3,0,2.51-0.25,3.62-0.75
		c1.11-0.5,1.94-1.11,2.49-1.82c0.55-0.71,0.9-1.39,1.06-2.04c0.16-0.64,0.24-1.73,0.24-3.25v-2.1c-0.71,0.9-1.83,1.76-3.36,2.57
		s-3.19,1.21-5,1.21c-3.3,0-5.99-1.14-8.07-3.43s-3.12-5.1-3.12-8.43c0-3.65,1.15-6.6,3.44-8.85c2.29-2.25,4.95-3.37,7.96-3.37
		c3.05,0,5.76,1.21,8.14,3.64v-3.29H716z M692.59,313.51c0,2.33,0.68,4.24,2.04,5.71c1.36,1.48,3.09,2.21,5.2,2.21
		c2.06,0,3.84-0.74,5.33-2.23c1.49-1.48,2.24-3.39,2.24-5.73c0-2.37-0.75-4.27-2.24-5.7s-3.22-2.16-5.19-2.16
		c-1.97,0-3.69,0.71-5.17,2.13C693.33,309.18,692.59,311.1,692.59,313.51z"/>
	<path d="M380.6,379.29v-15h-3.83v-4.02h8.36v2.9c2.73-2.17,5.4-3.26,8.01-3.26c2.63,0,4.44,1.2,5.44,3.6c3-2.4,5.79-3.6,8.38-3.6
		c1.49,0,2.72,0.33,3.68,0.99c0.96,0.66,1.61,1.49,1.94,2.5c0.33,1.01,0.5,2.5,0.5,4.46v11.43h4.02v4.02h-8.55v-14.64
		c0-1.33-0.06-2.27-0.18-2.82c-0.12-0.55-0.42-1-0.9-1.36c-0.48-0.36-1.07-0.54-1.75-0.54c-1.94,0-4.13,0.99-6.6,2.98v12.36h3.95
		v4.02h-8.48v-15.07c0-1.51-0.22-2.6-0.65-3.27c-0.43-0.67-1.18-1.01-2.22-1.01c-1.71,0-3.91,0.99-6.6,2.98v12.36h4.05v4.02h-12.69
		v-4.02H380.6z"/>
	<path d="M428.22,382.91l-7.57-18.62h-3.83v-4.02h11.4v4.02h-2.76l4.98,12.76l4.88-12.76h-3.05v-4.02h11.17v4.02h-3.43l-11.4,29.36
		h-7.64v-3.95h4.5L428.22,382.91z"/>
	<path d="M464.97,383.69l-6.18-19.4h-2.81v-4.02h9.71v4.02h-3.02l4.41,13.9l4.4-13.9h-2.51v-4.02h11.14v4.02h-2.54l4.41,13.9
		l4.42-13.9h-3.17v-4.02h10.4v4.02h-3.31l-6.18,19.4h-4.26l-5.29-16.67l-5.38,16.67H464.97z"/>
	<path d="M518.58,372.93H499.2c0.29,2.13,1.13,3.85,2.52,5.17c1.4,1.32,3.18,1.98,5.36,1.98c3.16,0,5.66-1.27,7.5-3.81l4,1.76
		c-1.3,2.02-2.99,3.51-5.07,4.49c-2.08,0.98-4.25,1.46-6.52,1.46c-3.52,0-6.54-1.1-9.04-3.3c-2.5-2.2-3.75-5.16-3.75-8.89
		c0-3.54,1.22-6.45,3.66-8.74c2.44-2.29,5.23-3.43,8.39-3.43c3.1,0,5.9,1.12,8.42,3.35C517.18,365.2,518.49,368.52,518.58,372.93z
		 M513.91,369.64c-0.32-1.62-1.16-3.08-2.52-4.39c-1.37-1.31-3.04-1.96-5.02-1.96c-1.81,0-3.36,0.59-4.64,1.77
		c-1.29,1.18-2.07,2.71-2.36,4.58H513.91z"/>
	<path d="M520.94,383.31v-4.02h4.1v-25.07h-4.1v-4.02h8.52v13.33c2.27-2.6,5.06-3.9,8.36-3.9c3.17,0,5.84,1.09,7.99,3.27
		c2.15,2.18,3.23,5.06,3.23,8.63c0,3.43-1.05,6.31-3.15,8.65c-2.1,2.34-4.8,3.51-8.08,3.51c-1.84,0-3.52-0.4-5.05-1.19
		c-1.52-0.79-2.62-1.67-3.29-2.64v3.45H520.94z M529.6,371.83c0,2.4,0.73,4.3,2.2,5.7c1.47,1.4,3.16,2.11,5.08,2.11
		c2.02,0,3.75-0.75,5.21-2.24c1.46-1.49,2.19-3.49,2.19-6c0-2.43-0.73-4.31-2.18-5.66c-1.45-1.34-3.16-2.01-5.11-2.01
		c-1.92,0-3.63,0.69-5.14,2.08C530.36,367.21,529.6,369.22,529.6,371.83z"/>
	<path d="M553.15,383.31v-7.9h4.05v0.76c0.14,1.08,0.73,1.97,1.75,2.67c1.02,0.7,2.23,1.05,3.63,1.05c1.46,0,2.63-0.25,3.5-0.76
		c0.87-0.51,1.31-1.21,1.31-2.12c0-0.87-0.36-1.52-1.08-1.93c-0.72-0.41-2.16-0.79-4.3-1.14c-3.18-0.54-5.44-1.4-6.8-2.6
		c-1.36-1.2-2.03-2.75-2.03-4.66c0-1.92,0.74-3.53,2.21-4.82c1.48-1.29,3.42-1.94,5.83-1.94c2.17,0,4.05,0.45,5.62,1.34v-0.99h4.02
		v7.64h-4.02v-1.4c-1.22-1.89-3-2.83-5.33-2.83c-1.19,0-2.17,0.26-2.94,0.77c-0.77,0.52-1.16,1.2-1.16,2.06
		c0,0.87,0.35,1.47,1.06,1.8c0.71,0.33,2.23,0.67,4.56,1.03c2.24,0.35,3.93,0.76,5.07,1.22c1.14,0.47,2.09,1.25,2.84,2.33
		c0.75,1.09,1.13,2.35,1.13,3.8c0,2.14-0.82,3.85-2.46,5.11c-1.64,1.26-3.77,1.89-6.39,1.89c-2.46,0-4.47-0.56-6.02-1.68v1.3H553.15
		z"/>
	<path d="M578.65,379.29v-15h-3.57v-4.02h8.1v19.02h3.57v4.02h-11.67v-4.02H578.65z M578.01,352.43c0-0.73,0.26-1.37,0.77-1.9
		c0.52-0.54,1.17-0.81,1.96-0.81c0.75,0,1.39,0.26,1.93,0.79c0.54,0.52,0.81,1.17,0.81,1.93c0,0.76-0.27,1.41-0.81,1.94
		c-0.54,0.53-1.18,0.8-1.93,0.8c-0.76,0-1.41-0.27-1.94-0.81C578.28,353.82,578.01,353.18,578.01,352.43z"/>
	<path d="M589.2,364.29v-4.02h3v-3.55l4.52-4.14v7.69h4.26v4.02h-4.26v11.19c0,1.79,0.1,2.9,0.3,3.32c0.2,0.42,0.69,0.63,1.49,0.63
		c0.84,0,1.67-0.16,2.48-0.48v4.12c-1.16,0.41-2.32,0.62-3.48,0.62c-1.38,0-2.5-0.31-3.36-0.92c-0.86-0.61-1.4-1.38-1.62-2.3
		s-0.33-2.51-0.33-4.76v-11.43H589.2z"/>
	<path d="M628.58,372.93H609.2c0.29,2.13,1.13,3.85,2.52,5.17c1.4,1.32,3.18,1.98,5.36,1.98c3.16,0,5.66-1.27,7.5-3.81l4,1.76
		c-1.3,2.02-2.99,3.51-5.07,4.49c-2.08,0.98-4.25,1.46-6.52,1.46c-3.52,0-6.54-1.1-9.04-3.3c-2.5-2.2-3.75-5.16-3.75-8.89
		c0-3.54,1.22-6.45,3.66-8.74c2.44-2.29,5.23-3.43,8.39-3.43c3.1,0,5.9,1.12,8.42,3.35C627.18,365.2,628.49,368.52,628.58,372.93z
		 M623.92,369.64c-0.32-1.62-1.16-3.08-2.52-4.39c-1.37-1.31-3.04-1.96-5.02-1.96c-1.81,0-3.36,0.59-4.64,1.77
		c-1.29,1.18-2.07,2.71-2.36,4.58H623.92z"/>
	<path d="M634.58,383.31v-5.86h5.86v5.86H634.58z M638.7,374.33h-2.43l-1.19-14.07v-10.07h4.81v10.07L638.7,374.33z"/>
</g>
</svg>
