<?xml version="1.0" encoding="utf-8"?>
<!-- Generator: Adobe Illustrator 26.0.1, SVG Export Plug-In . SVG Version: 6.00 Build 0)  -->
<svg version="1.1" id="Layer_1" xmlns="http://www.w3.org/2000/svg" xmlns:xlink="http://www.w3.org/1999/xlink" x="0px" y="0px"
	 viewBox="0 0 1366 768" style="enable-background:new 0 0 1366 768;" xml:space="preserve">
<style type="text/css">
	.st0{fill:url(#SVGID_1_);}
	.st1{fill:#FFFFFF;stroke:#000000;stroke-width:0.5;stroke-miterlimit:10;}
</style>
<g>
	<linearGradient id="SVGID_1_" gradientUnits="userSpaceOnUse" x1="325.6432" y1="172.1625" x2="709.6641" y2="556.1833">
		<stop  offset="0.2464" style="stop-color:#7AC943"/>
		<stop  offset="0.5235" style="stop-color:#662D91"/>
		<stop  offset="0.9106" style="stop-color:#D4145A"/>
	</linearGradient>
	<polygon class="st0" points="372.68,402.34 219.55,263.3 423.06,226.33 507.97,37.73 606.02,219.85 811.63,242.32 668.72,391.85 
		710.89,594.34 524.51,504.64 344.96,607.31 	"/>
	<path d="M508.21,44.5l94.42,175.38l1.5,2.78l3.14,0.34l198,21.64L667.64,388.64l-2.18,2.28l0.64,3.09l40.6,195l-179.47-86.39
		l-2.84-1.37l-2.74,1.57l-172.91,98.87l26.7-197.38l0.42-3.13l-2.34-2.12L226.07,265.17l195.97-35.6l3.1-0.56l1.3-2.88L508.21,44.5
		 M507.73,30.95l-86.76,192.71l-207.93,37.78L369.5,403.5l-28.33,209.43l183.46-104.91l190.43,91.66l-43.08-206.9L818,240
		l-210.09-22.97L507.73,30.95L507.73,30.95z"/>
</g>
<g>
	<path class="st1" d="M329.84,322.33v-22.92h-6.31v7.8h-3.78v-11.62h24.76v11.62h-3.78v-7.8h-6.28v22.92h3.98v3.82h-12.5v-3.82
		H329.84z"/>
	<path class="st1" d="M350.47,322.44V299.3h-3.85v-3.71h8.02v11.73c2.5-2.02,4.89-3.03,7.14-3.03c1.41,0,2.56,0.29,3.47,0.88
		s1.53,1.36,1.86,2.32c0.33,0.96,0.49,2.36,0.49,4.21v10.74h3.63v3.71h-7.8v-13.01c0-1.61-0.05-2.69-0.15-3.23s-0.38-0.99-0.85-1.34
		c-0.46-0.35-1.01-0.53-1.64-0.53c-1.61,0-3.66,0.92-6.15,2.75v11.65h3.69v3.71h-11.71v-3.71H350.47z"/>
	<path class="st1" d="M394.81,322.44v3.71h-7.29v-2.59c-2.02,1.96-4.28,2.94-6.77,2.94c-1.93,0-3.61-0.63-5.04-1.89
		c-1.43-1.26-2.14-2.87-2.14-4.83c0-1.98,0.76-3.62,2.27-4.92c1.52-1.3,3.34-1.96,5.48-1.96c1.99,0,3.92,0.6,5.78,1.8v-2.11
		c0-1.08-0.1-1.92-0.31-2.5s-0.69-1.11-1.44-1.58s-1.74-0.7-2.96-0.7c-2.09,0-3.61,0.83-4.55,2.5l-4-1.05
		c1.77-3.31,4.83-4.97,9.18-4.97c1.6,0,2.98,0.22,4.14,0.65c1.16,0.43,2.03,0.99,2.6,1.67c0.57,0.68,0.96,1.42,1.15,2.21
		c0.2,0.79,0.3,2.05,0.3,3.78v9.84H394.81z M387.1,318.24c-1.8-1.41-3.63-2.11-5.47-2.11c-1.16,0-2.12,0.34-2.9,1.01
		s-1.16,1.55-1.16,2.61c0,1,0.34,1.83,1.02,2.5c0.68,0.67,1.61,1.01,2.78,1.01c2.02,0,3.93-0.85,5.73-2.55V318.24z"/>
	<path class="st1" d="M404.5,304.88v2.57c2.68-1.93,5.13-2.9,7.34-2.9c1.38,0,2.52,0.33,3.42,0.98c0.9,0.65,1.49,1.45,1.77,2.39
		c0.28,0.95,0.42,2.33,0.42,4.14v10.37h3.58v3.71h-7.76v-13.91c0-1.61-0.24-2.66-0.73-3.15s-1.08-0.74-1.78-0.74
		c-1.85,0-3.93,0.9-6.26,2.7v11.38h3.67v3.71h-11.58v-3.71h3.74v-13.84h-3.74v-3.71H404.5z"/>
	<path class="st1" d="M426.1,322.44V299.3h-3.82v-3.71h8v19.09l7.95-6.35h-3.54v-3.45h11.76v3.45h-3.25l-7.98,6.64l7.49,7.47h3.74
		v3.71h-5.47l-10.7-10.7v6.99h3.67v3.71h-11.67v-3.71H426.1z"/>
	<path class="st1" d="M448.82,326.15v-7.29h3.74v0.7c0.13,1,0.67,1.82,1.62,2.46c0.94,0.64,2.06,0.97,3.35,0.97
		c1.35,0,2.42-0.23,3.23-0.7s1.21-1.12,1.21-1.96c0-0.81-0.33-1.4-1-1.78s-1.99-0.73-3.97-1.05c-2.93-0.49-5.02-1.3-6.27-2.4
		c-1.25-1.11-1.88-2.54-1.88-4.3c0-1.77,0.68-3.26,2.04-4.45s3.16-1.79,5.38-1.79c2.01,0,3.74,0.41,5.19,1.24v-0.91h3.71v7.05h-3.71
		v-1.3c-1.13-1.74-2.77-2.61-4.92-2.61c-1.1,0-2,0.24-2.71,0.71c-0.71,0.48-1.07,1.11-1.07,1.9c0,0.81,0.33,1.36,0.98,1.66
		c0.65,0.3,2.05,0.62,4.21,0.95c2.07,0.32,3.63,0.7,4.68,1.13s1.93,1.15,2.63,2.15c0.7,1,1.04,2.17,1.04,3.51
		c0,1.98-0.76,3.55-2.27,4.71c-1.52,1.17-3.48,1.75-5.9,1.75c-2.27,0-4.12-0.52-5.56-1.55v1.2H448.82z"/>
	<path class="st1" d="M483.16,322.44v-13.86h-3.1v-3.69h3.1v-3.07c0-2.59,0.55-4.37,1.65-5.36s2.4-1.48,3.89-1.48
		c3.22,0,5.09,1.63,5.6,4.9l-3.71,0.57c-0.15-1.36-0.68-2.04-1.6-2.04c-0.63,0-1.06,0.22-1.3,0.65c-0.23,0.43-0.35,1.35-0.35,2.77
		v3.07h3.65v3.69h-3.65v13.86h4.04v3.71h-11.32v-3.71H483.16z"/>
	<path class="st1" d="M494.59,315.51c0-3.28,1.08-5.97,3.25-8.08c2.17-2.1,4.81-3.15,7.93-3.15c3.06,0,5.69,1.04,7.89,3.11
		c2.2,2.07,3.3,4.78,3.3,8.12s-1.1,6.05-3.29,8.13s-4.82,3.12-7.9,3.12c-3.16,0-5.82-1.05-7.97-3.16S494.59,318.79,494.59,315.51z
		 M499.01,315.5c0,2.1,0.66,3.82,1.97,5.16s2.91,2.01,4.8,2.01c1.92,0,3.53-0.68,4.82-2.03c1.3-1.36,1.94-3.07,1.94-5.14
		c0-2.08-0.66-3.8-1.98-5.15c-1.32-1.35-2.92-2.02-4.79-2.02c-1.96,0-3.58,0.69-4.86,2.07C499.64,311.77,499.01,313.48,499.01,315.5
		z"/>
	<path class="st1" d="M523.94,322.44v-13.84h-4.28v-3.71h7.62v4.79c0.47-1.25,1.12-2.28,1.96-3.1s1.72-1.36,2.65-1.63
		c0.93-0.26,2.2-0.4,3.81-0.4h1.1v4.22h-0.83c-2.12,0-3.71,0.21-4.76,0.64s-1.82,1.2-2.33,2.32c-0.5,1.12-0.76,3.13-0.76,6.03v4.68
		h4.64v3.71h-13.1v-3.71H523.94z"/>
	<path class="st1" d="M559.31,326.5l-6.96-17.91h-3.75v-3.71h10.7v3.71h-2.77l4.58,12.06l4.59-12.06h-2.95v-3.71h10.39v3.71h-3.27
		l-6.79,17.91H559.31z"/>
	<path class="st1" d="M577.84,322.44v-13.84h-3.3v-3.71h7.47v17.56h3.3v3.71h-10.77v-3.71H577.84z M577.25,297.65
		c0-0.67,0.24-1.26,0.71-1.76s1.08-0.75,1.81-0.75c0.69,0,1.28,0.24,1.78,0.73s0.75,1.08,0.75,1.78s-0.25,1.3-0.75,1.79
		c-0.5,0.49-1.09,0.74-1.78,0.74c-0.7,0-1.3-0.25-1.79-0.75C577.5,298.93,577.25,298.34,577.25,297.65z"/>
	<path class="st1" d="M588.06,326.15v-7.29h3.74v0.7c0.13,1,0.67,1.82,1.62,2.46c0.94,0.64,2.06,0.97,3.35,0.97
		c1.35,0,2.42-0.23,3.23-0.7s1.21-1.12,1.21-1.96c0-0.81-0.33-1.4-1-1.78s-1.99-0.73-3.97-1.05c-2.93-0.49-5.02-1.3-6.27-2.4
		c-1.25-1.11-1.88-2.54-1.88-4.3c0-1.77,0.68-3.26,2.04-4.45s3.16-1.79,5.38-1.79c2.01,0,3.74,0.41,5.19,1.24v-0.91h3.71v7.05h-3.71
		v-1.3c-1.13-1.74-2.77-2.61-4.92-2.61c-1.1,0-2,0.24-2.71,0.71c-0.71,0.48-1.07,1.11-1.07,1.9c0,0.81,0.33,1.36,0.98,1.66
		c0.65,0.3,2.05,0.62,4.21,0.95c2.07,0.32,3.63,0.7,4.68,1.13s1.93,1.15,2.63,2.15c0.7,1,1.04,2.17,1.04,3.51
		c0,1.98-0.76,3.55-2.27,4.71c-1.52,1.17-3.48,1.75-5.9,1.75c-2.27,0-4.12-0.52-5.56-1.55v1.2H588.06z"/>
	<path class="st1" d="M611.59,322.44v-13.84h-3.3v-3.71h7.47v17.56h3.3v3.71H608.3v-3.71H611.59z M611,297.65
		c0-0.67,0.24-1.26,0.71-1.76s1.08-0.75,1.81-0.75c0.69,0,1.28,0.24,1.78,0.73s0.75,1.08,0.75,1.78s-0.25,1.3-0.75,1.79
		c-0.5,0.49-1.09,0.74-1.78,0.74c-0.7,0-1.3-0.25-1.79-0.75C611.25,298.93,611,298.34,611,297.65z"/>
	<path class="st1" d="M621.33,308.59v-3.71h2.77v-3.27l4.17-3.82v7.1h3.93v3.71h-3.93v10.33c0,1.66,0.09,2.68,0.27,3.06
		c0.18,0.39,0.64,0.58,1.37,0.58c0.78,0,1.54-0.15,2.29-0.44v3.8c-1.07,0.38-2.14,0.57-3.21,0.57c-1.27,0-2.31-0.28-3.1-0.85
		c-0.79-0.56-1.29-1.27-1.49-2.12s-0.31-2.31-0.31-4.39v-10.55H621.33z"/>
	<path class="st1" d="M638.31,322.44v-13.84h-3.3v-3.71h7.47v17.56h3.3v3.71h-10.77v-3.71H638.31z M637.72,297.65
		c0-0.67,0.24-1.26,0.71-1.76s1.08-0.75,1.81-0.75c0.69,0,1.28,0.24,1.78,0.73s0.75,1.08,0.75,1.78s-0.25,1.3-0.75,1.79
		c-0.5,0.49-1.09,0.74-1.78,0.74c-0.7,0-1.3-0.25-1.79-0.75C637.96,298.93,637.72,298.34,637.72,297.65z"/>
	<path class="st1" d="M655.8,304.88v2.57c2.68-1.93,5.13-2.9,7.34-2.9c1.38,0,2.52,0.33,3.42,0.98c0.9,0.65,1.49,1.45,1.77,2.39
		c0.28,0.95,0.42,2.33,0.42,4.14v10.37h3.58v3.71h-7.76v-13.91c0-1.61-0.24-2.66-0.73-3.15s-1.08-0.74-1.78-0.74
		c-1.85,0-3.93,0.9-6.26,2.7v11.38h3.67v3.71h-11.58v-3.71h3.74v-13.84h-3.74v-3.71H655.8z"/>
	<path class="st1" d="M700.1,304.88v3.71h-3.82v15.84c0,2.14-0.11,3.72-0.33,4.76c-0.22,1.03-0.75,2.09-1.59,3.16
		c-0.84,1.08-2.11,1.98-3.79,2.71s-3.57,1.1-5.65,1.1c-3.13,0-5.93-0.94-8.39-2.83l2.72-3.03c1.85,1.44,3.85,2.15,6.02,2.15
		c1.2,0,2.31-0.23,3.34-0.69c1.03-0.46,1.79-1.02,2.3-1.68c0.51-0.66,0.83-1.29,0.98-1.88c0.15-0.59,0.22-1.59,0.22-3v-1.93
		c-0.66,0.83-1.69,1.63-3.1,2.37s-2.94,1.12-4.61,1.12c-3.05,0-5.53-1.05-7.45-3.16s-2.88-4.7-2.88-7.78c0-3.37,1.06-6.09,3.17-8.16
		c2.12-2.07,4.57-3.11,7.35-3.11c2.81,0,5.32,1.12,7.51,3.36v-3.03H700.1z M678.5,315.73c0,2.15,0.63,3.91,1.88,5.27
		c1.25,1.36,2.85,2.04,4.8,2.04c1.9,0,3.54-0.68,4.92-2.05s2.07-3.13,2.07-5.28c0-2.18-0.69-3.94-2.07-5.26s-2.97-1.99-4.79-1.99
		c-1.82,0-3.41,0.66-4.77,1.97C679.18,311.74,678.5,313.51,678.5,315.73z"/>
	<path class="st1" d="M390.58,376.44v-13.84h-3.54v-3.71h7.71v2.68c2.52-2.01,4.98-3.01,7.39-3.01c2.43,0,4.1,1.11,5.02,3.32
		c2.77-2.21,5.35-3.32,7.73-3.32c1.38,0,2.51,0.3,3.39,0.91c0.89,0.61,1.48,1.38,1.79,2.31s0.46,2.3,0.46,4.12v10.55h3.71v3.71
		h-7.89v-13.51c0-1.23-0.06-2.1-0.16-2.6c-0.11-0.5-0.39-0.92-0.83-1.25c-0.45-0.33-0.99-0.49-1.62-0.49
		c-1.79,0-3.82,0.92-6.09,2.75v11.4h3.65v3.71h-7.82v-13.91c0-1.39-0.2-2.4-0.6-3.02c-0.4-0.62-1.08-0.93-2.05-0.93
		c-1.58,0-3.61,0.92-6.09,2.75v11.4h3.74v3.71h-11.71v-3.71H390.58z"/>
	<path class="st1" d="M434.53,379.77l-6.99-17.18H424v-3.71h10.52v3.71h-2.55l4.59,11.78l4.5-11.78h-2.81v-3.71h10.31v3.71h-3.16
		l-10.52,27.09h-7.05v-3.65h4.15L434.53,379.77z"/>
	<path class="st1" d="M468.44,380.5l-5.7-17.91h-2.59v-3.71h8.96v3.71h-2.79l4.07,12.83l4.06-12.83h-2.32v-3.71h10.28v3.71h-2.34
		l4.07,12.83l4.08-12.83h-2.93v-3.71h9.6v3.71h-3.05l-5.7,17.91h-3.93l-4.88-15.38l-4.97,15.38H468.44z"/>
	<path class="st1" d="M517.91,370.57h-17.89c0.26,1.96,1.04,3.55,2.33,4.77s2.94,1.82,4.94,1.82c2.92,0,5.22-1.17,6.92-3.52
		l3.69,1.63c-1.2,1.86-2.76,3.24-4.68,4.14c-1.92,0.9-3.93,1.35-6.02,1.35c-3.25,0-6.03-1.01-8.34-3.04
		c-2.31-2.03-3.46-4.76-3.46-8.21c0-3.27,1.12-5.95,3.37-8.06c2.25-2.11,4.83-3.16,7.75-3.16c2.86,0,5.45,1.03,7.77,3.09
		C516.62,363.43,517.83,366.5,517.91,370.57z M513.61,367.54c-0.29-1.49-1.07-2.85-2.33-4.05c-1.26-1.21-2.81-1.81-4.64-1.81
		c-1.67,0-3.1,0.55-4.28,1.64s-1.91,2.5-2.18,4.23H513.61z"/>
	<path class="st1" d="M520.09,380.15v-3.71h3.78V353.3h-3.78v-3.71h7.87v12.3c2.09-2.4,4.67-3.6,7.71-3.6
		c2.93,0,5.39,1.01,7.37,3.02c1.98,2.01,2.98,4.67,2.98,7.97c0,3.16-0.97,5.83-2.91,7.99c-1.94,2.16-4.43,3.24-7.46,3.24
		c-1.7,0-3.25-0.37-4.66-1.1s-2.42-1.55-3.03-2.44v3.19H520.09z M528.09,369.56c0,2.21,0.68,3.97,2.03,5.26
		c1.35,1.3,2.92,1.94,4.69,1.94c1.86,0,3.46-0.69,4.81-2.07s2.02-3.22,2.02-5.54c0-2.24-0.67-3.98-2.01-5.22
		c-1.34-1.24-2.91-1.86-4.71-1.86c-1.77,0-3.35,0.64-4.75,1.92S528.09,367.14,528.09,369.56z"/>
	<path class="st1" d="M549.82,380.15v-7.29h3.74v0.7c0.13,1,0.67,1.82,1.62,2.46c0.94,0.64,2.06,0.97,3.35,0.97
		c1.35,0,2.42-0.23,3.23-0.7s1.21-1.12,1.21-1.96c0-0.81-0.33-1.4-1-1.78s-1.99-0.73-3.97-1.05c-2.93-0.49-5.02-1.3-6.27-2.4
		c-1.25-1.11-1.88-2.54-1.88-4.3c0-1.77,0.68-3.26,2.04-4.45s3.16-1.79,5.38-1.79c2.01,0,3.74,0.41,5.19,1.24v-0.91h3.71v7.05h-3.71
		v-1.3c-1.13-1.74-2.77-2.61-4.92-2.61c-1.1,0-2,0.24-2.71,0.71c-0.71,0.48-1.07,1.11-1.07,1.9c0,0.81,0.33,1.36,0.98,1.66
		c0.65,0.3,2.05,0.62,4.21,0.95c2.07,0.32,3.63,0.7,4.68,1.13s1.93,1.15,2.63,2.15c0.7,1,1.04,2.17,1.04,3.51
		c0,1.98-0.76,3.55-2.27,4.71c-1.52,1.17-3.48,1.75-5.9,1.75c-2.27,0-4.12-0.52-5.56-1.55v1.2H549.82z"/>
	<path class="st1" d="M573.35,376.44v-13.84h-3.3v-3.71h7.47v17.56h3.3v3.71h-10.77v-3.71H573.35z M572.76,351.65
		c0-0.67,0.24-1.26,0.71-1.76s1.08-0.75,1.81-0.75c0.69,0,1.28,0.24,1.78,0.73s0.75,1.08,0.75,1.78s-0.25,1.3-0.75,1.79
		c-0.5,0.49-1.09,0.74-1.78,0.74c-0.7,0-1.3-0.25-1.79-0.75C573,352.93,572.76,352.34,572.76,351.65z"/>
	<path class="st1" d="M583.08,362.59v-3.71h2.77v-3.27l4.17-3.82v7.1h3.93v3.71h-3.93v10.33c0,1.66,0.09,2.68,0.27,3.06
		c0.18,0.39,0.64,0.58,1.37,0.58c0.78,0,1.54-0.15,2.29-0.44v3.8c-1.07,0.38-2.14,0.57-3.21,0.57c-1.27,0-2.31-0.28-3.1-0.85
		c-0.79-0.56-1.29-1.27-1.49-2.12s-0.31-2.31-0.31-4.39v-10.55H583.08z"/>
	<path class="st1" d="M619.43,370.57h-17.89c0.26,1.96,1.04,3.55,2.33,4.77s2.94,1.82,4.94,1.82c2.92,0,5.22-1.17,6.92-3.52
		l3.69,1.63c-1.2,1.86-2.76,3.24-4.68,4.14c-1.92,0.9-3.93,1.35-6.02,1.35c-3.25,0-6.03-1.01-8.34-3.04
		c-2.31-2.03-3.46-4.76-3.46-8.21c0-3.27,1.12-5.95,3.37-8.06c2.25-2.11,4.83-3.16,7.75-3.16c2.86,0,5.45,1.03,7.77,3.09
		C618.13,363.43,619.34,366.5,619.43,370.57z M615.12,367.54c-0.29-1.49-1.07-2.85-2.33-4.05c-1.26-1.21-2.81-1.81-4.64-1.81
		c-1.67,0-3.1,0.55-4.28,1.64s-1.91,2.5-2.18,4.23H615.12z"/>
	<path class="st1" d="M624.96,380.15v-5.41h5.41v5.41H624.96z M628.77,371.86h-2.24l-1.1-12.99v-9.29h4.44v9.29L628.77,371.86z"/>
</g>
</svg>
