<?xml version="1.0" encoding="utf-8"?>
<!-- Generator: Adobe Illustrator 26.0.1, SVG Export Plug-In . SVG Version: 6.00 Build 0)  -->
<svg version="1.1" id="Layer_1" xmlns="http://www.w3.org/2000/svg" xmlns:xlink="http://www.w3.org/1999/xlink" x="0px" y="0px"
	 viewBox="0 0 1366 768" style="enable-background:new 0 0 1366 768;" xml:space="preserve">
<style type="text/css">
	.st0{fill:#BB3151;}
	.st1{fill:#FFFFFF;}
	.st2{font-family:'MyriadPro-Regular';}
	.st3{font-size:45px;}
</style>
<g>
	<g>
		<polygon class="st0" points="372.68,402.34 219.55,263.3 423.06,226.33 507.97,37.73 606.02,219.85 811.63,242.32 668.72,391.85 
			710.89,594.34 524.51,504.64 344.96,607.31 		"/>
		<path d="M508.21,44.5l94.42,175.38l1.5,2.78l3.14,0.34l198,21.64L667.64,388.64l-2.18,2.28l0.64,3.09l40.6,195l-179.47-86.39
			l-2.84-1.37l-2.74,1.57l-172.91,98.87l26.7-197.38l0.42-3.13l-2.34-2.12L226.07,265.17l195.97-35.6l3.1-0.56l1.3-2.88L508.21,44.5
			 M507.73,30.95l-86.76,192.71l-207.93,37.78L369.5,403.5l-28.33,209.43l183.46-104.91l190.43,91.66l-43.08-206.9L818,240
			l-210.09-22.97L507.73,30.95L507.73,30.95z"/>
	</g>
	<text transform="matrix(1 0 0 1 340.4482 326.1483)"><tspan x="0" y="0" class="st1 st2 st3">Thanks for visiting </tspan><tspan x="57.49" y="54" class="st1 st2 st3">my website! </tspan></text>
</g>
</svg>
